<svg width="40" height="40" viewBox="0 0 40 40" fill="none" xmlns="http://www.w3.org/2000/svg">
  <!-- Google G icon -->
  <path d="M20.3 17.1V23.5H30.7C30.2 26 29 28 27.1 29.4L32.5 33.6C35.7 30.7 37.5 26.3 37.5 21C37.5 19.8 37.4 18.6 37.2 17.5L20.3 17.1Z" fill="#4285F4"/>
  <path d="M20.3 37.5C25.2 37.5 29.3 35.9 32.5 33.6L27.1 29.4C25.5 30.5 23.1 31.2 20.3 31.2C15.6 31.2 11.6 28.2 10.2 24.1L4.6 28.4C7.8 34.2 13.6 37.5 20.3 37.5Z" fill="#34A853"/>
  <path d="M10.2 24.1C9.7 22.6 9.4 21 9.4 19.3C9.4 17.6 9.7 16 10.2 14.5L4.6 10.2C2.9 13.5 2 17.3 2 21.3C2 25.3 2.9 29 4.6 28.4L10.2 24.1Z" fill="#FBBC05"/>
  <path d="M20.3 7.5C23.4 7.5 26.2 8.6 28.3 10.7L32.7 6.3C29.3 3.1 25.2 1.2 20.3 1.2C13.6 1.2 7.8 4.5 4.6 10.2L10.2 14.5C11.6 10.4 15.6 7.5 20.3 7.5Z" fill="#EA4335"/>
</svg>