<svg xmlns="http://www.w3.org/2000/svg" viewBox="0 0 244 40"><path d="M24.2 34c-2.4 0-4.5-1.3-5.7-3.4L12 18.8l-1.2 2.1c-1.2 2.1-3.4 3.4-5.7 3.4h-.3l8.5 14.4c1.2 2 3.3 3.3 5.7 3.3s4.5-1.2 5.7-3.3l8.5-14.4h-.3c-2.4 0-4.5-1.3-5.7-3.4L24.2 34z" fill="#FF3D57"/><path d="M32.7 3.3C31.5 1.2 29.4 0 27 0s-4.5 1.2-5.7 3.3L12 18.8l6.5 11.8c1.2 2.1 3.4 3.4 5.7 3.4h.3c2.4 0 4.5-1.3 5.7-3.4l9-15.5L32.7 3.3z" fill="#FFCB00"/><path d="M12 18.8L5.5 7 0 18.8l5.5 5.5h.3c2.4 0 4.5-1.3 5.7-3.4L12 18.8z" fill="#00D647"/><text x="50" y="28" font-family="Arial,sans-serif" font-weight="700" font-size="24" fill="white">monday</text></svg>
