<svg width="40" height="40" viewBox="0 0 40 40" fill="none" xmlns="http://www.w3.org/2000/svg">
  <!-- OpenAI hexagonal flower/knot logo -->
  <path d="M33.8 16.8C34.4 14.5 34.1 12 32.9 9.9C31 6.6 27.2 4.9 23.5 5.6C21.8 3.7 19.4 2.5 16.8 2.5C13 2.5 9.6 4.8 8.2 8.3C5.8 8.8 3.7 10.2 2.3 12.2C0.4 15.5 0.8 19.6 3.1 22.5C2.5 24.8 2.8 27.3 4 29.4C5.9 32.7 9.7 34.4 13.4 33.7C15.1 35.6 17.5 36.8 20.1 36.8C23.9 36.8 27.3 34.5 28.7 31C31.1 30.5 33.2 29.1 34.6 27.1C36.5 23.8 36.1 19.7 33.8 16.8ZM20.1 34.5C18.4 34.5 16.8 33.9 15.5 32.8L15.9 32.6L23.7 28.1C24.1 27.9 24.4 27.5 24.4 27V18.4L27.7 20.3V27.2C27.7 31.2 24.3 34.5 20.1 34.5ZM7.2 28.5C6.3 27 5.9 25.2 6.2 23.5L6.6 23.7L14.4 28.2C14.8 28.4 15.3 28.4 15.7 28.2L25.1 22.8V26.5L18.4 30.4C14.8 32.4 10.2 31.2 7.2 28.5ZM5.5 13.8C6.4 12.2 7.9 11.1 9.6 10.6V18.2C9.6 18.7 9.8 19.1 10.2 19.3L19.6 24.7L16.3 26.6L9.6 22.7C6 20.6 4.5 16.3 5.5 13.8ZM29.8 20L20.4 14.6L23.7 12.7L30.4 16.6C34 18.6 35.5 23 34.2 26.7C33.3 25.2 31.8 24 30.1 23.5V15.9C30.1 15.4 29.9 15 29.5 14.8L29.8 20ZM33.1 15.8L32.7 15.6L24.9 11.1C24.5 10.9 24 10.9 23.6 11.1L14.2 16.5V12.8L20.9 8.9C24.5 6.9 29.1 8.1 31.4 11.5C32.3 12.8 32.8 14.3 33.1 15.8ZM12.5 20.9L9.2 19V12.1C9.2 8.1 12.6 4.8 16.8 4.8C18.5 4.8 20.1 5.4 21.4 6.5L21 6.7L13.2 11.2C12.8 11.4 12.5 11.8 12.5 12.3V20.9Z" fill="white"/>
</svg>