<svg width="40" height="40" viewBox="0 0 40 40" fill="none" xmlns="http://www.w3.org/2000/svg">
  <!-- Salesforce cloud icon -->
  <path d="M16.5 8C14.2 8 12.1 9.1 10.8 10.8C9.8 10.1 8.6 9.7 7.3 9.7C3.8 9.7 1 12.5 1 16C1 16.3 1 16.6 1.1 16.9C0.4 17.8 0 18.9 0 20.1C0 23 2.3 25.3 5.2 25.3H6.5C7.5 28.5 10.5 30.8 14 30.8C15.3 30.8 16.5 30.5 17.6 29.9C18.9 31.8 21.1 33 23.5 33C26.2 33 28.6 31.5 29.8 29.2C30.4 29.4 31 29.5 31.7 29.5C35.2 29.5 38 26.7 38 23.2C38 21.6 37.4 20.1 36.4 19C37.4 17.8 38 16.3 38 14.7C38 11 35 8 31.3 8C30.1 8 29 8.3 28 8.9C26.7 7.1 24.6 6 22.2 6C19.8 6 17.7 7.2 16.5 8Z" fill="#00A1E0"/>
</svg>