<svg width="40" height="40" viewBox="0 0 40 40" fill="none" xmlns="http://www.w3.org/2000/svg">
  <!-- Top left - blue/teal -->
  <path d="M8.5 25.2C8.5 27.1 6.9 28.7 5 28.7C3.1 28.7 1.5 27.1 1.5 25.2C1.5 23.3 3.1 21.7 5 21.7H8.5V25.2Z" fill="#E01E5A"/>
  <path d="M10.3 25.2C10.3 23.3 11.9 21.7 13.8 21.7C15.7 21.7 17.3 23.3 17.3 25.2V35C17.3 36.9 15.7 38.5 13.8 38.5C11.9 38.5 10.3 36.9 10.3 35V25.2Z" fill="#E01E5A"/>
  <!-- Top right - green -->
  <path d="M13.8 8.5C11.9 8.5 10.3 6.9 10.3 5C10.3 3.1 11.9 1.5 13.8 1.5C15.7 1.5 17.3 3.1 17.3 5V8.5H13.8Z" fill="#36C5F0"/>
  <path d="M13.8 10.3C15.7 10.3 17.3 11.9 17.3 13.8C17.3 15.7 15.7 17.3 13.8 17.3H4C2.1 17.3 0.5 15.7 0.5 13.8C0.5 11.9 2.1 10.3 4 10.3H13.8Z" fill="#36C5F0"/>
  <!-- Bottom right - yellow -->
  <path d="M30.5 13.8C30.5 11.9 32.1 10.3 34 10.3C35.9 10.3 37.5 11.9 37.5 13.8C37.5 15.7 35.9 17.3 34 17.3H30.5V13.8Z" fill="#2EB67D"/>
  <path d="M28.7 13.8C28.7 15.7 27.1 17.3 25.2 17.3C23.3 17.3 21.7 15.7 21.7 13.8V4C21.7 2.1 23.3 0.5 25.2 0.5C27.1 0.5 28.7 2.1 28.7 4V13.8Z" fill="#2EB67D"/>
  <!-- Bottom left - red -->
  <path d="M25.2 30.5C27.1 30.5 28.7 32.1 28.7 34C28.7 35.9 27.1 37.5 25.2 37.5C23.3 37.5 21.7 35.9 21.7 34V30.5H25.2Z" fill="#ECB22E"/>
  <path d="M25.2 28.7C23.3 28.7 21.7 27.1 21.7 25.2C21.7 23.3 23.3 21.7 25.2 21.7H35C36.9 21.7 38.5 23.3 38.5 25.2C38.5 27.1 36.9 28.7 35 28.7H25.2Z" fill="#ECB22E"/>
</svg>