<?xml version="1.0" encoding="UTF-8"?>
<svg version="1.1" xmlns="http://www.w3.org/2000/svg" width="1408" height="768" viewBox="330 165 750 380">

<path d="M0 0 C5.47493405 1.62835924 10.42671749 4.03996397 15.53125 6.55859375 C16.46316162 7.01486649 17.39507324 7.47113922 18.35522461 7.9412384 C21.40539384 9.43613314 24.45274203 10.9366809 27.5 12.4375 C29.62035322 13.47837242 31.74079685 14.51906068 33.86132812 15.55957031 C48.56097219 22.78019135 63.22707759 30.06752919 77.84960938 37.44311523 C85.64817313 41.36992396 93.48605214 45.19544947 101.375 48.9375 C111.3222887 53.66460138 121.18508706 58.55126154 131.03125 63.484375 C131.77876022 63.85885017 132.52627045 64.23332535 133.2964325 64.61914825 C138.69905529 67.32657773 144.09971402 70.0379132 149.5 72.75 C154.93884452 75.48137175 160.37841458 78.21128034 165.81968689 80.93781281 C167.95327798 82.00777332 170.08562164 83.08018853 172.21789551 84.152771 C173.55719706 84.82452904 174.8966712 85.49594311 176.23632812 86.16699219 C176.87840776 86.48942839 177.5204874 86.81186459 178.182024 87.14407158 C181.50222134 88.79954077 184.83920479 90.39494643 188.22323608 91.91610718 C188.9091407 92.22623875 189.59504532 92.53637032 190.30173492 92.85589981 C191.60305362 93.44005382 192.90833738 94.01548635 194.21813202 94.58037949 C198.61787257 96.55477947 200.97655912 98.46371538 202.85839844 102.8984375 C203.11137695 103.63320313 203.36435547 104.36796875 203.625 105.125 C204.30875284 106.79473934 204.99373534 108.46397546 205.6796875 110.1328125 C206.03772461 111.05352539 206.39576172 111.97423828 206.76464844 112.92285156 C208.17111506 116.42623205 209.69879736 119.86742323 211.2578125 123.3046875 C211.54528351 123.93851349 211.83275452 124.57233948 212.12893677 125.22537231 C212.71362165 126.51316931 213.29863393 127.80081771 213.88397217 129.08831787 C215.26465821 132.13606383 216.6236505 135.19328791 217.984375 138.25 C218.50249756 139.38945068 219.02062012 140.52890137 219.55444336 141.70288086 C220.47914045 143.81198984 221.34583872 145.94809949 222.13500977 148.11157227 C224.63262201 154.65930678 227.18605 157.53668121 233.49536133 160.62158203 C234.46626709 161.05583496 235.43717285 161.49008789 236.4375 161.9375 C238.53499934 162.95206295 240.63132868 163.96904785 242.7265625 164.98828125 C243.78391602 165.49053223 244.84126953 165.9927832 245.93066406 166.51025391 C250.48313065 168.71985867 254.89227944 171.16427167 259.3125 173.625 C268.81944642 178.85623792 278.40369907 183.93543497 288 189 C297.65246537 194.09605489 307.29567608 199.20470691 316.875 204.4375 C317.72964844 204.90244873 318.58429688 205.36739746 319.46484375 205.84643555 C323.8648887 208.24920353 328.23040033 210.70105429 332.5703125 213.2109375 C333.48184082 213.73115479 334.39336914 214.25137207 335.33251953 214.78735352 C337.05776342 215.7737711 338.77552665 216.7734406 340.48388672 217.78881836 C341.2523291 218.22589111 342.02077148 218.66296387 342.8125 219.11328125 C343.47894531 219.50298096 344.14539063 219.89268066 344.83203125 220.29418945 C348.69200684 221.55085493 351.91502658 220.47781043 355.53515625 218.88354492 C356.36917969 218.42052979 357.20320313 217.95751465 358.0625 217.48046875 C359.4870752 216.69857178 359.4870752 216.69857178 360.94042969 215.90087891 C361.95008789 215.33546387 362.95974609 214.77004883 364 214.1875 C365.59569824 213.30843994 365.59569824 213.30843994 367.22363281 212.41162109 C369.42506954 211.19857786 371.62460749 209.98208254 373.82226562 208.76220703 C378.45281365 206.19434474 383.10080062 203.65888702 387.75 201.125 C388.6373584 200.6403125 389.5247168 200.155625 390.43896484 199.65625 C397.81549928 195.63149782 405.21647165 191.65299255 412.625 187.6875 C413.20944885 187.37465057 413.79389771 187.06180115 414.39605713 186.73947144 C419.82505352 183.83395196 425.25547642 180.93110606 430.6875 178.03125 C431.29673309 177.7058725 431.90596619 177.380495 432.53366089 177.04525757 C433.75699287 176.39234211 434.98072509 175.74017598 436.2048645 175.08877563 C439.20694071 173.4893505 442.19931369 171.87556388 445.17529297 170.22802734 C450.10658934 167.51717851 454.864709 164.93153374 460.1953125 163.1015625 C469.97436144 159.46937348 474.02184045 154.10055155 478.3616333 144.89338684 C483.21153373 134.19414074 487.55310933 123.27839771 491.375 112.171875 C495.3780312 101.11147136 499.3795741 95.48870972 510.1875 90.3125 C513.146676 89.02517485 516.12886996 87.81677175 519.12646484 86.62158203 C538.24238107 78.79903491 556.55349418 68.77429969 575 59.5 C579.95701129 57.00777688 584.91484607 54.51721362 589.875 52.03125 C590.48212452 51.72692739 591.08924904 51.42260479 591.71477127 51.10906029 C600.52769557 46.69546953 609.39017673 42.39770914 618.29525757 38.17341614 C625.92215941 34.5435683 633.48827377 30.79667577 641.0390625 27.01171875 C641.93488667 26.56272657 641.93488667 26.56272657 642.84880829 26.10466385 C647.10899319 23.96850125 651.36718709 21.8283856 655.625 19.6875 C659.33044102 17.82446367 663.03617745 15.96202788 666.74349976 14.10273743 C669.02297247 12.95931251 671.30155211 11.8141045 673.57901001 10.66667175 C694.84519219 0 694.84519219 0 698 0 C696.38575305 4.22137188 694.47140383 8.27305698 692.4921875 12.33203125 C691.96132538 13.42499512 691.96132538 13.42499512 691.41973877 14.54003906 C690.24042722 16.96530429 689.05796382 19.38901432 687.875 21.8125 C687.46715271 22.64937347 687.05930542 23.48624695 686.63909912 24.34848022 C676.40615498 45.33616518 665.94307972 66.2091751 655.46923828 87.07739258 C652.97424955 92.04897594 650.48629069 97.02406202 648 102 C648.69561035 101.65219482 649.3912207 101.30438965 650.10791016 100.94604492 C657.40527344 97.29736328 664.70263672 93.64868164 672 90 C673.60367432 89.16722534 673.60367432 89.16722534 675.23974609 88.31762695 C678 87 678 87 680 87 C677.69786761 92.88092614 675.0198932 98.57971041 672.375 104.3125 C671.87871094 105.39595703 671.38242188 106.47941406 670.87109375 107.59570312 C667.77857543 114.3040285 664.55287345 120.92819456 661.22386169 127.52076721 C658.41917098 133.10114584 655.74695857 138.73876596 653.08984375 144.390625 C651.80706538 147.09607794 650.52202628 149.80044414 649.23608398 152.50439453 C648.36172419 154.35305974 647.49433367 156.20503547 646.63354492 158.06005859 C645.36724756 160.78391822 644.07503246 163.4941083 642.77734375 166.203125 C642.4010936 167.02911194 642.02484344 167.85509888 641.63719177 168.70611572 C638.93748922 174.25546595 636.61849541 176.42505316 631 179 C630.21794189 179.41499756 629.43588379 179.82999512 628.63012695 180.25756836 C626.19322661 181.48893496 623.7549501 182.71716684 621.3125 183.9375 C620.36552246 184.41131104 619.41854492 184.88512207 618.44287109 185.37329102 C609.56924544 189.77859137 600.58551536 193.93277308 591.58129883 198.06298828 C582.42433316 202.28267761 573.40470881 206.73869248 564.46142578 211.39428711 C563.53571777 211.86874268 562.61000977 212.34319824 561.65625 212.83203125 C560.84994141 213.25202393 560.04363281 213.6720166 559.21289062 214.10473633 C557 215 557 215 553 215 C564.64161107 177.37264992 564.64161107 177.37264992 577.67993164 169.81958008 C580.83204125 168.36641874 584.01376031 167.12916515 587.29638672 166.00292969 C592.56936453 164.04687109 597.53113351 161.37498965 602.5625 158.875 C604.5183893 157.92712668 606.47775389 156.98637211 608.44140625 156.0546875 C609.27357666 155.65749512 610.10574707 155.26030273 610.96313477 154.85107422 C613 154 613 154 615 154 C615.22429688 153.22398437 615.44859375 152.44796875 615.6796875 151.6484375 C617.445641 146.76855416 619.77233059 142.24466738 622.125 137.625 C622.59292969 136.69816406 623.06085937 135.77132812 623.54296875 134.81640625 C624.69169056 132.54240594 625.84411881 130.27036718 627 128 C626.18144531 128.41507813 625.36289062 128.83015625 624.51953125 129.2578125 C611.6831704 135.7348089 598.72165981 141.95370979 585.76611328 148.1875 C582.15444064 149.92535695 578.54392182 151.66560129 574.93359375 153.40625 C569.37860296 156.08418226 563.82119542 158.75705577 558.26318359 161.42871094 C554.9297361 163.03383349 551.59947642 164.64543841 548.26953125 166.2578125 C546.15890515 167.27614735 544.04823027 168.29438109 541.9375 169.3125 C540.96119629 169.7871167 539.98489258 170.2617334 538.97900391 170.75073242 C538.08745605 171.17974854 537.1959082 171.60876465 536.27734375 172.05078125 C535.49609131 172.42887939 534.71483887 172.80697754 533.90991211 173.1965332 C532 174 532 174 530 174 C532.40754444 166.01661844 535.71861784 158.48619144 539.19555664 150.92382812 C539.85803025 149.47202773 540.51036904 148.01556074 541.15258789 146.5546875 C542.09330632 144.41597242 543.06437466 142.29348091 544.04296875 140.171875 C544.45907661 139.20299347 544.45907661 139.20299347 544.8835907 138.21453857 C547.40032104 132.9104279 550.87292973 130.66035268 556 128 C556.68741776 127.63876038 557.37483551 127.27752075 558.08308411 126.90533447 C560.25600073 125.79569966 562.44556086 124.72888348 564.64453125 123.671875 C565.45379562 123.27856995 566.26306 122.88526489 567.09684753 122.4800415 C569.66671384 121.23248057 572.23957255 119.99123317 574.8125 118.75 C576.49433127 117.93398656 578.17597324 117.11758285 579.85742188 116.30078125 C584.04416189 114.26943946 588.23582407 112.24856184 592.4307251 110.23413086 C594.18975214 109.38919614 595.94814491 108.54294005 597.70599365 107.69555664 C600.34761352 106.42312357 602.99177345 105.15612856 605.63671875 103.890625 C606.85377251 103.30326569 606.85377251 103.30326569 608.09541321 102.70404053 C613.77090539 100 613.77090539 100 616 100 C616.35578125 98.81470703 616.35578125 98.81470703 616.71875 97.60546875 C618.3486327 93.01893909 620.39902123 88.69904832 622.5 84.3125 C622.90347656 83.45849609 623.30695312 82.60449219 623.72265625 81.72460938 C625.34340566 78.31996581 626.90365334 75.14451998 629 72 C628.45512939 72.2902002 627.91025879 72.58040039 627.34887695 72.87939453 C615.90017855 78.9583704 604.37770783 84.83639009 592.6875 90.4375 C591.51912598 91.00500977 590.35075195 91.57251953 589.14697266 92.15722656 C582.44560534 95.41154235 575.72006813 98.59526249 568.94206238 101.68745422 C565.12079054 103.44311396 561.32025035 105.24109544 557.5218811 107.04568481 C555.65505783 107.92121864 553.77989927 108.77922821 551.89633179 109.61813354 C540.60626034 114.6586616 533.19545135 118.8297548 528.61108398 130.63769531 C528.35261688 131.348573 528.09414978 132.05945068 527.82785034 132.79187012 C526.66275095 135.89954629 525.27633345 138.89254284 523.89674377 141.909729 C522.11550755 145.81588434 520.40697368 149.7538652 518.6875 153.6875 C517.63306018 156.09740638 516.57736371 158.50672031 515.51753235 160.91426086 C514.8665397 162.39315395 514.21854188 163.87337048 513.57414246 165.35514832 C508.91274901 175.94762913 508.91274901 175.94762913 502.89453125 179.11328125 C501.42016602 179.9012207 501.42016602 179.9012207 499.91601562 180.70507812 C498.37977539 181.50075195 498.37977539 181.50075195 496.8125 182.3125 C495.77673828 182.86228516 494.74097656 183.41207031 493.67382812 183.97851562 C491.12187137 185.3309351 488.56410736 186.67080382 486 188 C486.00886168 189.18579855 486.00886168 189.18579855 486.01790237 190.39555264 C486.15766409 209.65117905 486.23091704 228.90601419 486.23059464 248.16216183 C486.23203436 257.47452682 486.25579418 266.78582624 486.33251953 276.09790039 C486.39935516 284.21659728 486.42388367 292.33414518 486.39809489 300.4530955 C486.38590906 304.75065564 486.39457671 309.04584479 486.4539566 313.34306145 C486.50925325 317.39323935 486.50771795 321.43952913 486.46369362 325.48980713 C486.45740582 326.97125179 486.47140279 328.45295206 486.50784111 329.93396187 C486.76517904 341.09087672 486.76517904 341.09087672 482.3733139 345.84088326 C479.43832418 348.2131786 476.26906588 350.11807424 473 352 C471.64414908 352.92899775 470.29481876 353.86784935 468.9609375 354.828125 C467.76705051 355.63752333 466.57173033 356.44481162 465.375 357.25 C459.57271644 361.19507463 453.85915326 365.24454343 448.1875 369.375 C442.02787573 373.85690043 435.80299229 378.22216384 429.5 382.5 C422.46300203 387.27785343 415.52977136 392.17744399 408.65087891 397.17993164 C402.7521441 401.46832356 396.80671324 405.68624021 390.83154297 409.86743164 C386.69313614 412.7719287 382.65238874 415.76909361 378.66845703 418.88305664 C377 420 377 420 375 420 C374.6873233 413.27289746 375.87242128 406.89626751 377.01171875 400.28125 C377.22018936 399.0431105 377.42865997 397.80497101 377.64344788 396.52931213 C378.0891063 393.88636129 378.53672857 391.24384031 378.98791504 388.60183716 C379.69269801 384.47437618 380.38965861 380.34562006 381.08496094 376.21655273 C381.31605617 374.84464785 381.54716573 373.47274537 381.77828979 372.10084534 C381.89177639 371.42720003 382.00526299 370.75355473 382.12218857 370.05949593 C382.46361418 368.03463586 382.80579248 366.00990443 383.14822388 363.98521423 C384.52247398 355.85554265 385.88033004 347.7239633 387.18457031 339.58276367 C387.55724053 337.26258583 387.93791451 334.94367734 388.32714844 332.6262207 C389.31063853 326.70623669 390.16078396 320.79417166 390.84024048 314.83259583 C391.23541695 311.44231528 391.67907931 308.05913139 392.12731934 304.67550659 C392.33020894 303.04809799 392.51107275 301.41775346 392.66711426 299.78518677 C393.95085929 286.43936923 393.95085929 286.43936923 399.02124023 281.95996094 C401.9642686 279.72588678 405.07962349 277.83948222 408.28695679 276.01174927 C410.65630085 274.61237878 412.77288242 272.96116813 414.91796875 271.2421875 C415.62896729 270.68345947 416.33996582 270.12473145 417.07250977 269.54907227 C417.77045654 268.99662842 418.46840332 268.44418457 419.1875 267.875 C424.91225756 263.38143831 430.671861 258.98513249 436.59375 254.75390625 C439.88552325 252.35454555 443.05794594 249.81381595 446.22265625 247.25 C448 246 448 246 450 246 C450 233.13 450 220.26 450 207 C444.92625 209.7534375 444.92625 209.7534375 439.75 212.5625 C430.51469275 217.56933937 421.26312183 222.54476767 412 227.5 C402.84469401 232.39920923 393.69606606 237.31036114 384.5625 242.25 C383.07073242 243.0553418 383.07073242 243.0553418 381.54882812 243.87695312 C380.62650391 244.37646484 379.70417969 244.87597656 378.75390625 245.390625 C377.95283447 245.82407227 377.1517627 246.25751953 376.32641602 246.70410156 C374.63490938 247.64633236 372.97173148 248.63997855 371.32788086 249.66308594 C369 251 369 251 367 251 C367.0377504 251.7014061 367.07550079 252.40281219 367.11439514 253.12547302 C367.45846421 259.8145637 367.71547583 266.50111098 367.88080692 273.19712734 C367.96869673 276.63866274 368.08721245 280.07276091 368.2824707 283.51000977 C369.61015474 307.48868853 369.61015474 307.48868853 363.14013672 315.70361328 C359.15504813 319.9760261 354.79048606 323.66228127 350 327 C342.52616361 323.39051082 335.89211511 318.50703567 332 311 C329.72000683 301.79828302 330.30602718 292.1033574 330.57513428 282.6885376 C330.65889527 279.22234975 330.66163604 275.756109 330.671875 272.2890625 C330.70345673 265.52391424 330.82272605 258.76286183 331 252 C330.1965918 251.56993149 329.39318359 251.13986298 328.56542969 250.69676208 C281.29928428 225.3939902 281.29928428 225.3939902 262.02587891 214.81762695 C261.18718262 214.35831787 260.34848633 213.89900879 259.484375 213.42578125 C258.75959961 213.02786377 258.03482422 212.62994629 257.28808594 212.2199707 C254.5509138 210.76055444 251.77901258 209.37778155 249 208 C246.5395067 230.48841824 246.5395067 230.48841824 253.03125 250.73828125 C256.26460699 253.40447017 259.89571911 255.1765581 263.7109375 256.87158203 C267.71963342 258.84771178 271.03475289 261.70803763 274.5 264.5 C275.90564995 265.58359638 277.31451231 266.66303842 278.7265625 267.73828125 C279.42555664 268.27275879 280.12455078 268.80723633 280.84472656 269.35791016 C284.50965287 272.15019543 288.19026703 274.92142648 291.875 277.6875 C292.54724609 278.1928125 293.21949219 278.698125 293.91210938 279.21875 C296.5717769 281.21144208 299.23410142 283.15606762 302 285 C302.66015625 287.03686523 302.66015625 287.03686523 303.0625 289.55859375 C303.21976563 290.50412109 303.37703125 291.44964844 303.5390625 292.42382812 C303.69117188 293.41833984 303.84328125 294.41285156 304 295.4375 C304.15210938 296.36626953 304.30421875 297.29503906 304.4609375 298.25195312 C304.98878746 301.49909571 305.49527946 304.74918224 306 308 C308.55653784 324.38964585 311.24507904 340.75721814 313.9375 357.125 C315.42741432 366.18320087 316.91354746 375.24200409 318.39324951 384.30187988 C318.99232073 387.95319516 319.59938287 391.60311473 320.20751953 395.25292969 C320.57734911 397.49931593 320.94698804 399.74573357 321.31640625 401.9921875 C321.48768539 403.00693146 321.65896454 404.02167542 321.83543396 405.06716919 C322.65962689 410.11927469 323.19155388 414.88093366 323 420 C317.62891543 417.06521131 312.73624634 413.75287912 307.8125 410.125 C301.23485569 405.32602186 294.61565176 400.59565311 287.9375 395.9375 C287.10025391 395.35323242 286.26300781 394.76896484 285.40039062 394.16699219 C283.73474401 393.00465772 282.06905458 391.84238462 280.40332031 390.68017578 C276.69825521 388.08994234 273.00447372 385.48384623 269.3125 382.875 C268.27790649 382.14398071 268.27790649 382.14398071 267.22241211 381.39819336 C265.84041899 380.42149396 264.45850131 379.44468782 263.07666016 378.46777344 C258.84704625 375.47830262 254.61488238 372.49244208 250.38305664 369.50610352 C246.79056782 366.970692 243.19906205 364.43390836 239.609375 361.89453125 C238.87912109 361.37826172 238.14886719 360.86199219 237.39648438 360.33007812 C236.03804778 359.3696548 234.6799336 358.40877516 233.32226562 357.44726562 C232.68482422 356.99673828 232.04738281 356.54621094 231.390625 356.08203125 C230.76415164 355.62234672 230.13767828 355.16266218 229.49222088 354.68904781 C226.9376062 352.89563023 226.9376062 352.89563023 223.77936268 351.26963902 C214.72448758 346.02906817 214.72448758 346.02906817 212.81801414 340.68961906 C212.39823001 336.62273151 212.38721865 332.73569965 212.52416992 328.65795898 C212.52784231 327.11970839 212.52576789 325.58143505 212.51841736 324.04319763 C212.51470337 319.88894664 212.59083366 315.73962565 212.68187881 311.58651614 C212.76343492 307.23860463 212.77080424 302.89056582 212.78620911 298.54200745 C212.82653314 290.31763507 212.9330917 282.09552303 213.06375247 273.87214381 C213.20932247 264.50604923 213.28060028 255.13984368 213.34579313 245.77289855 C213.48148958 226.5139866 213.70998026 207.25717533 214 188 C213.05550995 187.68837921 212.1110199 187.37675842 211.13790894 187.05569458 C202.17684861 184.04090256 191.28061802 179.70165367 186.54589844 171.05029297 C185.28532272 168.31474328 184.16166787 165.54255988 183.08447266 162.72998047 C180.99255533 157.46392474 178.58065511 152.33157699 176.24136353 147.17178345 C175.39908814 145.30343276 174.5678589 143.43062333 173.7409668 141.55541992 C173.21543213 140.3666626 172.68989746 139.17790527 172.1484375 137.953125 C171.68614746 136.90286133 171.22385742 135.85259766 170.74755859 134.77050781 C170.48018387 134.20625595 170.21280914 133.64200409 169.93733215 133.06065369 C169.20330369 131.44694776 168.540347 129.80087929 167.9058075 128.14552307 C164.08497738 119.09660589 159.28337945 115.90833113 150.53515625 111.87109375 C149.29691168 111.2675693 148.06024062 110.6608072 146.82505798 110.05104065 C143.5790265 108.45932776 140.3136843 106.91215745 137.04205322 105.37390137 C133.79705932 103.83890009 130.57237246 102.26250714 127.34570312 100.68945312 C121.09872886 97.65246335 114.83150571 94.65983707 108.55477905 91.68490601 C104.06959087 89.55900158 99.58830617 87.42500056 95.10887146 85.28700256 C93.1887373 84.37071712 91.26772033 83.45627807 89.34559631 82.54417419 C82.43519243 79.25263725 75.67194922 75.75217106 69 72 C70.93494608 75.73049716 72.87340445 79.45915826 74.8125 83.1875 C75.63331055 84.77014648 75.63331055 84.77014648 76.47070312 86.38476562 C77.00244141 87.40634766 77.53417969 88.42792969 78.08203125 89.48046875 C78.56905518 90.41785889 79.0560791 91.35524902 79.55786133 92.32104492 C80.03376709 93.2051001 80.50967285 94.08915527 81 95 C81.4257431 95.82350449 81.85148621 96.64700897 82.29013062 97.49546814 C84.24625888 100.3607078 85.6978639 101.26065047 88.80004883 102.75146484 C89.7756929 103.22901215 90.75133698 103.70655945 91.75654602 104.19857788 C93.34078621 104.94719589 93.34078621 104.94719589 94.95703125 105.7109375 C96.59885628 106.50777451 96.59885628 106.50777451 98.27384949 107.32070923 C101.78040431 109.0189643 105.29606254 110.69731864 108.8125 112.375 C111.13801217 113.49606428 113.46288952 114.61844642 115.78710938 115.7421875 C120.23139825 117.88886437 124.67657812 120.03366002 129.12353516 122.17480469 C130.13208557 122.6604187 131.14063599 123.14603271 132.17974854 123.6463623 C134.66785522 124.84058028 137.16018091 126.02538273 139.65380859 127.20800781 C140.91920626 127.81781818 142.18437097 128.42811239 143.44921875 129.0390625 C144.47748779 129.52842285 145.50575684 130.0177832 146.56518555 130.52197266 C151.50031711 133.51779001 153.23642186 138.33329456 155.5390625 143.43359375 C156.02854874 144.50602074 156.02854874 144.50602074 156.52792358 145.60011292 C157.21439642 147.10771533 157.89839957 148.61644445 158.58007812 150.1262207 C159.62136432 152.42945819 160.67340166 154.72756281 161.7265625 157.02539062 C162.39388294 158.49449488 163.06057092 159.96388661 163.7265625 161.43359375 C164.04009674 162.11707382 164.35363098 162.80055389 164.67666626 163.50474548 C166.2364193 166.98011701 167.44947538 170.22230917 168 174 C163.11834544 172.50932051 158.68839474 170.50658489 154.12890625 168.25390625 C153.3785762 167.88705719 152.62824615 167.52020813 151.85517883 167.14224243 C150.25281694 166.35836192 148.65127007 165.57281352 147.05047607 164.78573608 C143.69169948 163.134363 140.32897752 161.49110337 136.96636963 159.84754944 C135.29182034 159.02904399 133.61746234 158.2101471 131.94329834 157.39085388 C124.73034937 153.86234527 117.49309988 150.38665639 110.2434082 146.93432617 C105.05874664 144.46441301 99.88128889 141.98020061 94.7109375 139.48046875 C94.08980072 139.18039413 93.46866394 138.88031952 92.82870483 138.57115173 C89.78179203 137.09916898 86.73567977 135.62560161 83.69091797 134.14916992 C82.60182129 133.62299072 81.51272461 133.09681152 80.390625 132.5546875 C79.42157227 132.08530762 78.45251953 131.61592773 77.45410156 131.13232422 C74.94877812 129.9216379 74.94877812 129.9216379 72 129 C73.62801215 132.74721934 75.30888404 136.46838351 77 140.1875 C77.45761719 141.24259766 77.91523438 142.29769531 78.38671875 143.38476562 C81.55438448 150.26250561 84.13775419 153.83890619 91 157 C92.43762695 157.7273938 92.43762695 157.7273938 93.90429688 158.46948242 C97.33259125 160.19009516 100.78718696 161.85053739 104.25 163.5 C105.54079295 164.119089 106.83148103 164.73839669 108.12207031 165.35791016 C117.76391414 169.97615603 127.46054712 174.47331599 137.16796875 178.9519043 C146.57712847 183.30680164 155.92238513 187.78602776 165.25 192.3125 C165.92397827 192.6392572 166.59795654 192.9660144 167.2923584 193.30267334 C177.23347949 198.12579555 187.12374918 203.04537751 197 208 C197 218.89 197 229.78 197 241 C186.32485883 236.29037889 175.78306859 231.45985578 165.375 226.1875 C156.07468511 221.4809657 146.68148987 217.0382628 137.20019531 212.70947266 C127.9573339 208.47577794 118.8088074 204.06441817 109.67108154 199.61001587 C102.50657008 196.11898925 95.3299042 192.66408915 88.08984375 189.33203125 C87.13271484 188.89114922 87.13271484 188.89114922 86.15625 188.44136047 C83.13546827 187.05196657 80.11142358 185.67072764 77.08251953 184.29907227 C74.03490549 182.90466013 71.01854114 181.45589833 68 180 C66.87331909 179.54149658 66.87331909 179.54149658 65.72387695 179.07373047 C58.04330455 175.39413544 55.38925227 166.6987773 52.0625 159.375 C51.33324151 157.8155113 50.60150763 156.257178 49.86743164 154.69995117 C48.33852505 151.4516535 46.8204684 148.19860512 45.30957031 144.94189453 C41.96872601 137.76408119 38.49388806 130.65161459 35.021698 123.53668213 C33.9729389 121.38520127 32.92821821 119.2318136 31.88500977 117.07763672 C31.22425043 115.71445553 30.56336394 114.35133597 29.90234375 112.98828125 C29.58509842 112.33390076 29.26785309 111.67952026 28.94099426 111.00531006 C27.2302314 107.4885503 25.49409335 103.98641179 23.72705078 100.49755859 C23.35528214 99.76216354 22.98351349 99.02676849 22.60047913 98.26908875 C21.88410262 96.85562451 21.16422835 95.4439261 20.44041443 94.03425598 C18 89.22014625 18 89.22014625 18 87 C21.89407036 88.50186278 25.63740854 90.22282309 29.39453125 92.0390625 C29.98674973 92.32478119 30.5789682 92.61049988 31.18913269 92.90487671 C33.06434764 93.81002262 34.93843663 94.71747259 36.8125 95.625 C38.09042086 96.24234056 39.36841493 96.85952961 40.64648438 97.4765625 C43.76517152 98.98262354 46.88285375 100.49075182 50 102 C45.79650651 93.5858084 41.58704914 85.17463252 37.37057495 76.76693726 C35.06746815 72.17363387 32.76620325 67.57940872 30.46508789 62.98510742 C29.28612655 60.63220436 28.10644649 58.27966129 26.92602539 55.92749023 C20.82849112 43.77575097 14.76424404 31.61142109 8.89453125 19.34765625 C8.45614426 18.43189316 8.01775726 17.51613007 7.56608582 16.57261658 C4.95486249 11.08655258 2.43748557 5.56541656 0 0 Z " fill="#030303" transform="translate(355,174)"/>
<path d="M0 0 C1.01118896 0.49677246 2.02237793 0.99354492 3.06420898 1.50537109 C4.19673096 2.08883301 5.32925293 2.67229492 6.49609375 3.2734375 C7.11712479 3.59302429 7.73815582 3.91261108 8.37800598 4.24188232 C10.39926859 5.28350842 12.41850945 6.32897752 14.4375 7.375 C15.1325061 7.7341449 15.82751221 8.09328979 16.5435791 8.46331787 C26.03968118 13.37226433 35.47061715 18.38206198 44.8293457 23.54907227 C53.28967538 28.20363535 61.86623878 32.62778019 70.46582031 37.01806641 C73.65645401 38.65583499 76.83005862 40.32257678 80 42 C81.08764648 42.55864746 82.17529297 43.11729492 83.29589844 43.69287109 C89.93731239 47.27736781 93.8112148 50.16177962 97 57 C97.73790771 58.44149414 97.73790771 58.44149414 98.49072266 59.91210938 C100.14437928 63.17065394 101.7338258 66.45454158 103.3125 69.75 C103.86228516 70.87277344 104.41207031 71.99554688 104.97851562 73.15234375 C105.49736328 74.23128906 106.01621094 75.31023437 106.55078125 76.421875 C107.25714722 77.88512207 107.25714722 77.88512207 107.9777832 79.37792969 C109 82 109 82 109 86 C108.35788574 86.3309668 107.71577148 86.66193359 107.05419922 87.00292969 C94.80747892 93.32311601 82.60544366 99.70402562 70.52490234 106.33691406 C63.64150141 110.11386506 56.72951677 113.83542109 49.80465698 117.53567505 C40.56251281 122.47424804 31.32879282 127.42770822 22.125 132.4375 C21.23167969 132.92178467 20.33835937 133.40606934 19.41796875 133.9050293 C15.47960566 136.05077092 11.57674084 138.22779843 7.7421875 140.5546875 C7.1013623 140.93955322 6.46053711 141.32441895 5.80029297 141.72094727 C4.14925474 142.72200394 2.51140678 143.7447315 0.875 144.76953125 C-2.71027741 146.30399101 -4.28995767 146.13017999 -8 145 C-10.29559528 143.86087589 -12.4354543 142.68901897 -14.625 141.375 C-22.20141639 136.97293217 -29.89179414 132.80686191 -37.625 128.6875 C-40.08118502 127.3771548 -42.53684442 126.06582836 -44.9921875 124.75390625 C-45.59473358 124.4319931 -46.19727966 124.11007996 -46.81808472 123.77841187 C-52.14744681 120.92781861 -57.45119536 118.03186775 -62.75 115.125 C-73.37150196 109.3033579 -84.06944604 103.62760138 -94.77441406 97.96142578 C-102.21065518 94.02393274 -109.62612021 90.05365814 -117 86 C-116.34894129 81.70473651 -114.82355823 78.00400196 -113.015625 74.08984375 C-112.71815369 73.44052383 -112.42068237 72.79120392 -112.11419678 72.12220764 C-111.48500434 70.75515958 -110.85280294 69.38949286 -110.21777344 68.02514648 C-109.25415485 65.9464627 -108.31047598 63.85945687 -107.3671875 61.77148438 C-106.75120627 60.43954564 -106.13405688 59.1081464 -105.515625 57.77734375 C-105.23833557 57.15746078 -104.96104614 56.53757782 -104.675354 55.89891052 C-101.89608878 50.03088156 -97.901338 47.27761269 -92.25390625 44.40625 C-91.34608398 43.93977051 -90.43826172 43.47329102 -89.50292969 42.99267578 C-88.53258789 42.50009277 -87.56224609 42.00750977 -86.5625 41.5 C-78.73376731 37.47439495 -70.95900415 33.3753737 -63.25 29.125 C-53.89488498 23.97845591 -44.43934695 19.04329291 -34.93603516 14.17626953 C-29.56731031 11.41571933 -24.24859599 8.60880226 -19.015625 5.59765625 C-18.09990723 5.07373291 -17.18418945 4.54980957 -16.24072266 4.01000977 C-14.54361952 3.03030257 -12.85510797 2.03550001 -11.17724609 1.02319336 C-10.43039551 0.59272705 -9.68354492 0.16226074 -8.9140625 -0.28125 C-8.2742041 -0.66345703 -7.6343457 -1.04566406 -6.97509766 -1.43945312 C-4.06872119 -2.2643036 -2.68024326 -1.32131248 0 0 Z " fill="#010101" transform="translate(708,232)"/>
<path d="M0 0 C1 3 1 3 -0.16015625 5.7734375 C-0.78357244 6.97954854 -1.41887856 8.17954903 -2.0625 9.375 C-4.66957545 14.25820547 -7.10231785 19.14103472 -9.20472717 24.26693726 C-10.2669671 26.84105259 -11.37832616 29.39288094 -12.49191284 31.94512939 C-13.02910408 33.20850474 -13.54547446 34.48098639 -14.03811646 35.76239014 C-18.68066501 47.76509588 -26.00747721 51.76262024 -37.42562866 56.84765625 C-39.92606609 57.9669056 -42.39075124 59.14071722 -44.8527832 60.34179688 C-49.71444 62.71027019 -54.60501597 65.01389319 -59.5 67.3125 C-62.13129856 68.55387963 -64.76187393 69.79678228 -67.39237976 71.0398407 C-69.13330815 71.86248252 -70.87444543 72.68468243 -72.61579895 73.50642395 C-81.19828223 77.55857804 -89.74830453 81.67639117 -98.2890625 85.81567383 C-103.54932677 88.35979401 -108.82237241 90.87564971 -114.11328125 93.35546875 C-115.19005127 93.86102295 -116.26682129 94.36657715 -117.3762207 94.88745117 C-120 96 -120 96 -122 96 C-122 83.79 -122 71.58 -122 59 C-110.6096073 52.84551362 -99.13494269 47.12538642 -87.36755371 41.72769165 C-79.5052072 38.11945028 -71.71319775 34.41681343 -64 30.5 C-54.64995155 25.75922784 -45.17573355 21.32193828 -35.65527344 16.93481445 C-23.70538679 11.42297464 -11.84626836 5.73090582 0 0 Z " fill="#030303" transform="translate(978,376)"/>
<path d="M0 0 C1.04671875 0.49886719 2.0934375 0.99773437 3.171875 1.51171875 C10.45008086 4.97270107 17.73122348 8.42460577 25.0546875 11.7890625 C42.09020052 19.62185401 58.95006277 27.78476352 75.78901672 36.03062439 C76.6423912 36.44848709 77.49576569 36.86634979 78.375 37.296875 C79.21504074 37.70825211 80.05508148 38.11962921 80.920578 38.54347229 C88.54098369 42.27178768 96.18619071 45.94609997 103.8527832 49.57861328 C110.28483393 52.63171442 116.62648341 55.81324171 123 59 C123 71.21 123 83.42 123 96 C119.12303241 95.22460648 117.01138298 94.6829923 113.68359375 92.953125 C112.43678833 92.31467651 112.43678833 92.31467651 111.16479492 91.66333008 C110.2647876 91.19693115 109.36478027 90.73053223 108.4375 90.25 C99.93419037 85.91898476 91.35887865 81.79584713 82.6875 77.8125 C71.89969574 72.84680511 61.18249577 67.75064111 50.5 62.5625 C49.80957611 62.22747467 49.11915222 61.89244934 48.4078064 61.54727173 C45.13998271 59.96066267 41.87576639 58.36749633 38.61791992 56.76049805 C36.26069918 55.60147573 33.89741251 54.50244691 31.5012207 53.42114258 C25.52150123 50.6614458 21.80467787 48.91438348 19.1875 42.5625 C18.57956888 41.17457524 17.9685802 39.78798791 17.35546875 38.40234375 C16.83412354 37.1800708 16.83412354 37.1800708 16.30224609 35.93310547 C14.6829359 32.28586275 12.93655781 28.70952133 11.17578125 25.12890625 C10.83459763 24.43380447 10.493414 23.7387027 10.14189148 23.02253723 C9.44454717 21.60223188 8.7469904 20.18203082 8.04922485 18.76193237 C6.35763868 15.31671733 4.67281966 11.86842983 3 8.4140625 C2.4225 7.2276416 1.845 6.0412207 1.25 4.81884766 C0 2 0 2 0 0 Z " fill="#030303" transform="translate(429,376)"/>
<path d="M0 0 C0.495 0.99 0.495 0.99 1 2 C0.13891602 4.17626953 0.13891602 4.17626953 -1.24609375 6.8828125 C-2.00164551 8.37590942 -2.00164551 8.37590942 -2.77246094 9.89916992 C-3.59665527 11.49595581 -3.59665527 11.49595581 -4.4375 13.125 C-5.55672838 15.31081978 -6.67521626 17.49701888 -7.79296875 19.68359375 C-8.34388184 20.75851074 -8.89479492 21.83342773 -9.46240234 22.94091797 C-10.79762641 25.59737359 -12.06940436 28.26699304 -13.30078125 30.97265625 C-13.80363647 32.05619385 -13.80363647 32.05619385 -14.31665039 33.16162109 C-14.91592407 34.46237259 -15.49870089 35.77092426 -16.06030273 37.08837891 C-20.1356009 45.76141863 -30.6477134 48.90835659 -38.8125 52.75 C-39.84826172 53.24371094 -40.88402344 53.73742187 -41.95117188 54.24609375 C-49.54662298 57.84887433 -49.54662298 57.84887433 -53 59 C-53 48.11 -53 37.22 -53 26 C-46.5 22.75 -46.5 22.75 -44.21557617 21.60888672 C-39.82407922 19.41491659 -35.43606996 17.21416747 -31.05078125 15.0078125 C-10.41363168 4.63732036 -10.41363168 4.63732036 0 0 Z " fill="#040404" transform="translate(909,356)"/>
<path d="M0 0 C1.41751517 0.93339899 2.83346723 1.86917202 4.2487793 2.8059082 C5.03745895 3.32675491 5.82613861 3.84760162 6.63871765 4.38423157 C10.17823235 6.80623591 13.49410041 9.47432147 16.8125 12.1875 C18.08943283 13.22316311 19.36676461 14.25833454 20.64453125 15.29296875 C21.19471924 15.7418042 21.74490723 16.19063965 22.31176758 16.65307617 C24.01700553 18.07349586 24.01700553 18.07349586 26.13720703 19.28955078 C28.76072757 21.69851341 28.75312671 23.57191341 29.16015625 27.07421875 C29.31258789 28.29246338 29.46501953 29.51070801 29.62207031 30.76586914 C29.76741211 32.06000732 29.91275391 33.35414551 30.0625 34.6875 C30.38450309 37.32648824 30.71831242 39.96385667 31.05078125 42.6015625 C31.20885254 43.87547852 31.36692383 45.14939453 31.52978516 46.46191406 C32.27529313 52.07141645 33.34361732 57.58895007 34.484375 63.12890625 C35 66 35 66 35 70 C30.34285971 67.78172368 26.24173589 64.85327593 22 61.9375 C21.21238281 61.40189453 20.42476562 60.86628906 19.61328125 60.31445312 C17.95903128 59.18098555 16.3230533 58.02049542 14.70410156 56.8371582 C11.98561849 54.89885929 11.98561849 54.89885929 8.72558594 53.38745117 C5.12560141 51.3733008 2.11394766 49.58308749 0 46 C-1.98160899 38.3777636 -1.12408231 30.21970594 -0.75 22.4375 C-0.68975026 20.26251676 -0.6350073 18.08737357 -0.5859375 15.91210938 C-0.45426026 10.60456134 -0.25401765 5.30302642 0 0 Z " fill="none" transform="translate(604,454)"/>
<path d="M0 0 C0.39874451 6.18820801 0.68716354 12.36881142 0.87890625 18.56689453 C0.95886851 20.66880562 1.06770195 22.76984041 1.20703125 24.86865234 C2.29895368 41.75330582 2.29895368 41.75330582 -1.46899414 47.07458496 C-5.18209027 50.76563536 -9.45775288 53.39518727 -14.02880859 55.90026855 C-16.6006337 57.33509469 -18.92463387 59.0352365 -21.28125 60.796875 C-22.68571441 61.78379593 -24.09186247 62.76832698 -25.5 63.75 C-26.23863281 64.26820313 -26.97726562 64.78640625 -27.73828125 65.3203125 C-29.49056735 66.54918846 -31.24501302 67.77498433 -33 69 C-33.66 68.67 -34.32 68.34 -35 68 C-34.89453857 67.38817871 -34.78907715 66.77635742 -34.68041992 66.14599609 C-32.55304572 53.74650958 -30.54950061 41.35067745 -28.9519043 28.87060547 C-28.84015869 28.00967285 -28.72841309 27.14874023 -28.61328125 26.26171875 C-28.51829346 25.50850342 -28.42330566 24.75528809 -28.32543945 23.97924805 C-27.69469588 20.14321042 -26.78887326 18.56316171 -23.71875 16.328125 C-23.04537598 15.83151367 -22.37200195 15.33490234 -21.67822266 14.82324219 C-20.95940918 14.30407227 -20.2405957 13.78490234 -19.5 13.25 C-18.03851318 12.17783171 -16.57757252 11.10491854 -15.1171875 10.03125 C-14.40916992 9.51304687 -13.70115234 8.99484375 -12.97167969 8.4609375 C-9.78002095 6.09604326 -6.68665438 3.61080085 -3.6015625 1.109375 C-2 0 -2 0 0 0 Z " fill="none" transform="translate(804,455)"/>
</svg>
